<svg xmlns="http://www.w3.org/2000/svg" style="display:none"><symbol id="apple-logo" viewBox="0 0 35.676 35.676"><path d="M32.295 26.202c-.096.271-.189.562-.296.848-.886 2.399-2.231 4.529-3.863 6.481-.315.38-.682.724-1.061 1.043-.749.634-1.611 1.017-2.608 1.052a5.229 5.229 0 0 1-2.161-.394c-.502-.205-.996-.434-1.505-.619-1.652-.6-3.295-.521-4.92.121-.586.232-1.164.488-1.761.689-.692.232-1.41.326-2.141.188-.638-.119-1.196-.416-1.714-.799-.643-.476-1.183-1.056-1.688-1.67-2.391-2.916-3.996-6.213-4.771-9.906-.334-1.588-.494-3.189-.396-4.812.115-1.946.567-3.799 1.607-5.469 1.305-2.099 3.146-3.474 5.568-4.041 1.457-.343 2.874-.203 4.263.332.731.28 1.464.557 2.198.832a2.763 2.763 0 0 0 2.026-.005c.749-.286 1.499-.571 2.251-.85.771-.281 1.555-.511 2.373-.576a8.913 8.913 0 0 1 3.58.449c1.647.551 2.987 1.526 3.999 2.946l.077.113c-2.552 1.779-4.005 4.129-3.794 7.311.213 3.184 1.927 5.338 4.737 6.736zM17.98 8.253a5.448 5.448 0 0 0 2.174-.402c3.179-1.262 4.841-4.625 4.791-7.197-.004-.207-.018-.414-.027-.654-.327.049-.625.072-.911.144-2.321.569-4.107 1.864-5.281 3.961-.687 1.228-1.069 2.532-.952 3.957.008.151.063.189.206.191z"/></symbol><symbol id="down-arrow" viewBox="0 0 129 129"><path d="M121.3 34.6c-1.6-1.6-4.2-1.6-5.8 0l-51 51.1-51.1-51.1c-1.6-1.6-4.2-1.6-5.8 0-1.6 1.6-1.6 4.2 0 5.8l53.9 53.9c.8.8 1.8 1.2 2.9 1.2 1 0 2.1-.4 2.9-1.2l53.9-53.9c1.7-1.6 1.7-4.2.1-5.8z"/></symbol><symbol id="facebook" viewBox="0 0 288.861 288.861"><path d="M167.172 288.861h-62.16V159.347H70.769v-59.48h34.242v-33.4C105.011 35.804 124.195 0 178.284 0c19.068 0 33.066 1.787 33.651 1.864l5.739.746-1.382 55.663-6.324-.058c-.013 0-14.223-.135-29.724-.135-11.536 0-13.066 2.847-13.066 14.171V99.88h50.913l-2.821 59.48h-48.086v129.501h-.012zm-49.314-12.854h36.453V146.5h48.677l1.607-33.779h-50.284V72.238c0-13.368 3.078-27.025 25.919-27.025 9.178 0 17.899.045 23.509.09l.778-31.292a300.444 300.444 0 0 0-26.247-1.157c-44.544 0-60.419 27.693-60.419 53.613v46.254H83.61V146.5h34.242v129.507h.006z"/></symbol><symbol id="google-play" viewBox="0 0 512.029 512.029"><path d="M111.758 8.189c-20.032-11.072-43.552-10.816-63.456.16l233.28 215.2 78.368-78.368L111.758 8.189zM24.974 30.365c-5.696 9.312-8.96 19.968-8.96 31.264v388.672c0 10.944 2.976 21.376 8.352 30.496l234.592-234.592L24.974 30.365zM463.854 202.525l-74.752-41.248-84 83.968 102.944 94.944 55.84-30.816c20.096-11.136 32.128-31.104 32.128-53.44-.032-22.336-12.032-42.304-32.16-53.408zM282.478 267.901L47.246 503.133c10.208 5.824 21.408 8.896 32.672 8.896 10.88 0 21.824-2.752 31.84-8.288l266.784-147.232-96.064-88.608z"/></symbol><symbol id="grid-three" viewBox="0 0 433.5 433.5"><path d="M0 204h127.5V51H0v153zm0 178.5h127.5v-153H0v153zm153 0h127.5v-153H153v153zm153 0h127.5v-153H306v153zM153 204h127.5V51H153v153zM306 51v153h127.5V51H306z"/></symbol><symbol id="grid-two" viewBox="0 0 35 35"><path d="M0 0h16v16H0zM19 0h16v16H19zM0 19h16v16H0zM19 19h16v16H19z"/></symbol><symbol id="hotel" viewBox="0 0 388.819 388.819"><path d="M368.753 175.923V80.088c0-13.132-10.684-23.816-23.816-23.816H43.882c-13.132 0-23.816 10.684-23.816 23.816v95.836C8.721 177.65 0 187.469 0 199.289v59.318a7.5 7.5 0 0 0 7.5 7.5h8.035v37a7.5 7.5 0 0 0 7.5 7.5h13.539v14.441a7.5 7.5 0 0 0 15 0v-14.441h285.672v14.441c0 4.142 3.357 7.5 7.5 7.5s7.5-3.358 7.5-7.5v-14.441h13.539a7.5 7.5 0 0 0 7.5-7.5v-37h8.034a7.5 7.5 0 0 0 7.5-7.5v-59.318c0-11.82-8.721-21.64-20.066-23.366zM35.065 80.088c0-4.861 3.955-8.816 8.816-8.816h301.055c4.861 0 8.816 3.955 8.816 8.816v95.566h-26.335a733.889 733.889 0 0 0 16.09-17.92 7.5 7.5 0 0 0-.001-9.845c-21.698-24.938-39.865-43.105-64.796-64.796a7.5 7.5 0 0 0-9.846 0c-24.932 21.692-43.098 39.859-64.795 64.796a7.5 7.5 0 0 0-.001 9.845 732.24 732.24 0 0 0 16.09 17.92h-51.503a733.868 733.868 0 0 0 16.091-17.92 7.5 7.5 0 0 0-.001-9.845c-21.695-24.934-39.862-43.101-64.796-64.796a7.5 7.5 0 0 0-9.846 0c-24.934 21.695-43.101 39.862-64.796 64.796a7.5 7.5 0 0 0-.001 9.845 735.947 735.947 0 0 0 16.091 17.92H35.065V80.088zm205.788 95.566c-6.901-7.084-13.872-14.611-21.15-22.842 17.929-20.287 33.803-36.161 54.085-54.086 20.282 17.924 36.156 33.799 54.086 54.086-7.277 8.231-14.249 15.758-21.15 22.842h-65.871zm-158.76 0c-6.901-7.085-13.873-14.611-21.151-22.842 17.926-20.283 33.803-36.16 54.086-54.086 20.283 17.926 36.16 33.803 54.086 54.086-7.277 8.231-14.249 15.757-21.151 22.842h-65.87zm276.192 119.953H30.535v-29.5h327.75v29.5zm15.534-44.5H15v-51.818c0-4.761 3.874-8.635 8.636-8.635h341.547c4.762 0 8.636 3.874 8.636 8.635v51.818z"/></symbol><symbol id="instagram" viewBox="0 0 512 512"><path d="M363.273 0H148.728C66.719 0 0 66.719 0 148.728v214.544C0 445.281 66.719 512 148.728 512h214.544C445.281 512 512 445.281 512 363.273V148.728C512 66.719 445.281 0 363.273 0zM472 363.272C472 423.225 423.225 472 363.273 472H148.728C88.775 472 40 423.225 40 363.273V148.728C40 88.775 88.775 40 148.728 40h214.544C423.225 40 472 88.775 472 148.728v214.544z"/><path d="M256 118c-76.094 0-138 61.906-138 138s61.906 138 138 138 138-61.906 138-138-61.906-138-138-138zm0 236c-54.037 0-98-43.963-98-98s43.963-98 98-98 98 43.963 98 98-43.963 98-98 98z"/><circle cx="396" cy="116" r="20"/></symbol><symbol id="left-arrow" viewBox="0 0 129 129"><path d="M88.6 121.3c.8.8 1.8 1.2 2.9 1.2s2.1-.4 2.9-1.2c1.6-1.6 1.6-4.2 0-5.8l-51-51 51-51c1.6-1.6 1.6-4.2 0-5.8s-4.2-1.6-5.8 0l-54 53.9c-1.6 1.6-1.6 4.2 0 5.8l54 53.9z"/></symbol><symbol id="right-arrow" viewBox="0 0 129 129"><path d="M40.4 121.3c-.8.8-1.8 1.2-2.9 1.2s-2.1-.4-2.9-1.2c-1.6-1.6-1.6-4.2 0-5.8l51-51-51-51c-1.6-1.6-1.6-4.2 0-5.8 1.6-1.6 4.2-1.6 5.8 0l53.9 53.9c1.6 1.6 1.6 4.2 0 5.8l-53.9 53.9z"/></symbol><symbol id="share" viewBox="0 0 58.995 58.995"><path d="M39.927 41.929c-.524.524-.975 1.1-1.365 1.709l-17.28-10.489a9.93 9.93 0 0 0 .716-3.693 9.949 9.949 0 0 0-.715-3.693l17.284-10.409C40.342 18.142 43.454 20 46.998 20c5.514 0 10-4.486 10-10s-4.486-10-10-10-10 4.486-10 10a9.94 9.94 0 0 0 .667 3.562L20.358 23.985c-1.788-2.724-4.866-4.529-8.361-4.529-5.514 0-10 4.486-10 10s4.486 10 10 10c3.495 0 6.572-1.805 8.36-4.529L37.661 45.43a9.987 9.987 0 0 0-.664 3.57 9.932 9.932 0 0 0 2.929 7.071c1.949 1.949 4.51 2.924 7.071 2.924s5.122-.975 7.071-2.924c1.889-1.889 2.929-4.4 2.929-7.071s-1.04-5.183-2.929-7.071c-3.899-3.9-10.242-3.9-14.141 0zM46.998 2c4.411 0 8 3.589 8 8s-3.589 8-8 8-8-3.589-8-8 3.588-8 8-8zm-35 35.456c-4.411 0-8-3.589-8-8s3.589-8 8-8 8 3.589 8 8-3.589 8-8 8zm40.656 17.201c-3.119 3.119-8.194 3.119-11.313 0A7.95 7.95 0 0 1 38.998 49a7.95 7.95 0 0 1 2.343-5.657c1.56-1.56 3.608-2.339 5.657-2.339s4.097.779 5.657 2.339c1.511 1.511 2.343 3.521 2.343 5.657s-.832 4.146-2.344 5.657z"/></symbol><symbol id="telegram" viewBox="0 0 240 240"><path d="M66.964 134.874s-32.08-10.062-51.344-16.002c-17.542-6.693-1.57-14.928 6.015-17.59 7.585-2.66 186.38-71.948 194.94-75.233 8.94-4.147 19.884-.35 14.767 18.656-4.416 20.407-30.166 142.874-33.827 158.812-3.66 15.937-18.447 6.844-18.447 6.844l-83.21-61.442z" fill="none" stroke="#000" stroke-width="10"/><path d="M92.412 201.62s4.295.56 8.83-3.702c4.536-4.26 26.303-25.603 26.303-25.603" fill="none" stroke="#000" stroke-width="10"/><path d="M66.985 134.887l28.922 14.082-3.488 52.65s-4.928.843-6.25-3.613c-1.323-4.455-19.185-63.12-19.185-63.12z" fill-rule="evenodd" stroke="#000" stroke-width="10" stroke-linejoin="bevel"/><path d="M66.985 134.887s127.637-77.45 120.09-71.138c-7.55 6.312-91.168 85.22-91.168 85.22z" fill-rule="evenodd" stroke="#000" stroke-width="9.67" stroke-linejoin="bevel"/></symbol><symbol id="temp-icon-left-arrow" viewBox="0 0 31.494 31.494"><path d="M10.273 5.01a1.117 1.117 0 0 1 1.587 1.57l-8.047 8.047h26.554c.62 0 1.127.492 1.127 1.11 0 .62-.508 1.128-1.127 1.128H3.813l8.047 8.032c.43.444.43 1.16 0 1.587a1.112 1.112 0 0 1-1.587 0L.32 16.532a1.12 1.12 0 0 1 0-1.57l9.953-9.953z" fill="#1E201D"/></symbol><symbol id="temp-icon-right-arrow" viewBox="0 0 31.49 31.49"><path d="M21.205 5.007a1.117 1.117 0 0 0-1.587 1.57l8.047 8.048H1.11c-.618 0-1.11.493-1.11 1.112 0 .62.492 1.127 1.11 1.127h26.555l-8.047 8.032c-.43.444-.43 1.16 0 1.587.444.444 1.16.444 1.587 0l9.952-9.952a1.092 1.092 0 0 0 0-1.57l-9.952-9.95z" fill="#1E201D"/></symbol><symbol id="twitter" viewBox="0 0 611.981 611.981"><path d="M605.95 114.16c-4.909-3.356-11.387-3.245-16.144.319-3.287 2.455-8.183 4.632-13.896 6.532 18.82-23.342 19.098-38.944 18.82-42.786a13.893 13.893 0 0 0-7.947-11.539c-4.549-2.136-9.875-1.664-13.952 1.276-25.658 18.363-51.329 22.357-66.308 22.884-24.382-22.648-55.906-35.061-89.414-35.061-72.494 0-131.479 58.957-131.479 131.451 0 5.243.305 10.485.929 15.672C165.581 199.899 67.457 85.867 66.472 84.703a13.773 13.773 0 0 0-11.789-4.854 13.908 13.908 0 0 0-10.763 6.824c-30.789 52.633-18.224 102.506 2.885 137.387-3.925-2.108-8.668-2.247-12.746-.208a13.873 13.873 0 0 0-7.697 12.191c-.901 55.296 24.354 88.443 49.832 107.748a13.765 13.765 0 0 0-4.979 3.482 13.875 13.875 0 0 0-3.01 13.453c17.711 57.127 59.318 78.539 88.513 86.557-33.48 23.605-74.893 29.139-106.362 29.139-20.096 0-33.938-2.385-34.077-2.414-6.269-1.109-12.565 2.262-15.131 8.143a13.856 13.856 0 0 0 4.383 16.6c63.146 47.475 139.397 57.447 192.253 57.447 41.773 0 70.801-6.104 72.271-6.422 271.306-63.354 281.611-306.618 281.181-350.943 50.857-46.725 58.957-64.963 60.233-69.512a13.857 13.857 0 0 0-5.519-15.161zm-78.054 68.444a13.877 13.877 0 0 0-4.521 11.234c.181 2.635 15.006 264.801-259.365 328.877-.264.055-27.6 5.756-66.239 5.756-36.004 0-83.658-4.924-129.135-24.881 41.635-2.664 92.687-15.438 129.412-56.059 3.675-4.078 4.577-9.918 2.344-14.938-2.233-5.008-7.239-8.238-12.718-8.238-2.58 0-57.168-.652-84.49-51.398 12.648.402 24.118-1.471 32.62-5.34 5.45-2.482 8.668-8.17 8.03-14.119-.638-5.949-5.048-10.818-10.901-12.08-2.954-.637-65.795-14.951-77.126-81.231 9.847 3.759 21.83 6.366 33.425 4.66a13.89 13.89 0 0 0 11.303-9.902 13.889 13.889 0 0 0-4.341-14.382c-2.773-2.358-62.702-54.436-36.669-122.588C94.433 153.41 189.422 236.819 303.967 230.37a13.874 13.874 0 0 0 10.401-5.658 13.914 13.914 0 0 0 2.247-11.636 104.148 104.148 0 0 1-3.231-25.824c0-57.182 46.53-103.713 103.74-103.713 28.029 0 54.283 10.998 73.95 30.983a13.894 13.894 0 0 0 9.652 4.133l2.136.014c10.194 0 26.171-1.234 44.492-7.143-5.866 6.199-13.494 13.189-23.383 20.831a13.872 13.872 0 0 0-4.452 15.963c2.205 5.728 7.975 9.334 14.021 8.834 2.247-.18 12.121-1.04 24.34-3.231-7.697 7.878-17.502 17.35-29.984 28.681z"/></symbol><symbol id="vk" viewBox="0 0 24 24"><path d="M19.499 18.97c-.266 0-.805-.063-1.433-.488-.474-.323-.932-.84-1.375-1.341-.673-.761-1.317-1.466-1.835-1.303-.706.223-.874 1.529-.864 2.189-.001.065-.016.326-.192.514-.132.132-.309.184-.643.194l-1.483.003a2.25 2.25 0 0 1-.19.005c-.751 0-3.384-.188-5.727-2.601C2.738 13.035.068 6.896.041 6.834l.069-.635.014-.01.155-.077c.195-.068.422-.073.478-.073l3.35-.021c.092.009.402.067.619.219.192.144.299.388.304.399.011.027.558 1.397 1.292 2.642 1.316 2.251 2.015 3.015 2.583 2.714.353-.19.646-1.327.499-3.433.004-.431-.064-1.282-.358-1.67-.184-.249-.456-.394-.651-.472l-.652-.26.529-.46c.077-.067.158-.122.24-.163.451-.217 1.144-.504 1.993-.504h1.173c.598 0 .921.137 1.18.247.118.049.221.093.331.12.916.216.883 1.068.823 2.614-.018.46-.039.984-.039 1.575 0 .133-.004.275-.008.42-.021.747-.047 1.661.467 1.99.288.179.924-.012 2.51-2.678.756-1.276 1.31-2.728 1.315-2.742.015-.035.137-.3.321-.415a.718.718 0 0 1 .37-.09l.134.007L22.7 6.05c-.002-.001.11-.012.26-.012.512 0 .739.123.797.16l.117.076.051.131c.194.514-.438 1.737-1.882 3.636-.31.406-.582.757-.82 1.062-1.616 2.07-1.616 2.07.136 3.677 1.526 1.398 2.146 2.268 2.397 2.751.207.334.258.637.139.874-.229.444-.971.503-1.002.506l-3.291.054a.613.613 0 0 1-.103.005zm-4.478-4.014c.882 0 1.545.749 2.313 1.616.408.462.83.938 1.215 1.199.467.316.846.342.951.342v.428l.035-.43 3.32-.056a.915.915 0 0 0 .19-.043c-.009-.019-.021-.038-.034-.061-.194-.371-.722-1.157-2.23-2.541-2.096-1.921-2.12-2.419-.233-4.835.238-.303.508-.65.814-1.053 1.136-1.495 1.532-2.268 1.67-2.627a2.99 2.99 0 0 0-.271.008l-3.701.03-.041-.002c-.081.255-.624 1.613-1.34 2.824-1.643 2.758-2.453 3.139-3.085 3.14-.225 0-.433-.06-.619-.176-.926-.594-.892-1.826-.867-2.726.005-.149.009-.283.009-.409 0-.604.021-1.139.039-1.609.061-1.539-.001-1.708-.164-1.746a3.025 3.025 0 0 1-.466-.164c-.228-.097-.423-.18-.848-.18h-1.173c-.392 0-.75.081-1.053.184.1.088.195.19.28.306.52.686.531 1.919.528 2.159.165 2.354-.155 3.782-.95 4.211a1.345 1.345 0 0 1-.638.163c-.912 0-1.692-.808-3.088-3.199-.78-1.321-1.34-2.736-1.346-2.75-.036-.042-.147-.08-.205-.091l-3.026.025c.643 1.403 2.906 6.123 5.364 8.654 2.11 2.171 4.447 2.34 5.113 2.34.09 0 .146-.004.16-.005l1.492-.002c.01-.613.153-2.447 1.462-2.858.135-.044.278-.066.423-.066z"/></symbol><symbol id="youtube" viewBox="0 0 49 49"><path d="M39.256 6.5H9.744C4.371 6.5 0 10.885 0 16.274v16.451c0 5.39 4.371 9.774 9.744 9.774h29.512c5.373 0 9.744-4.385 9.744-9.774V16.274c0-5.389-4.371-9.774-9.744-9.774zM47 32.726c0 4.287-3.474 7.774-7.744 7.774H9.744C5.474 40.5 2 37.012 2 32.726V16.274C2 11.988 5.474 8.5 9.744 8.5h29.512c4.27 0 7.744 3.488 7.744 7.774v16.452z"/><path d="M33.36 24.138l-13.855-8.115a1.002 1.002 0 0 0-1.505.863v16.229a1.002 1.002 0 0 0 1 1 1 1 0 0 0 .505-.137l13.855-8.113a1 1 0 0 0 0-1.727zM20 31.37V18.63l10.876 6.371L20 31.37z"/></symbol></svg>